<?xml version="1.0" encoding="utf-8"?>
<!-- Generator: Adobe Illustrator 22.0.1, SVG Export Plug-In . SVG Version: 6.00 Build 0)  -->
<svg version="1.1" id="Layer_1" xmlns="http://www.w3.org/2000/svg" xmlns:xlink="http://www.w3.org/1999/xlink" x="0px" y="0px"
	 viewBox="0 0 360 249.5" style="enable-background:new 0 0 360 249.5;" xml:space="preserve">
<style type="text/css">
	.st0{clip-path:url(#SVGID_2_);fill:#003D72;}
	.st1{clip-path:url(#SVGID_4_);fill:#003D72;}
	.st2{clip-path:url(#SVGID_6_);fill:#003D72;}
	.st3{clip-path:url(#SVGID_8_);fill:#003D72;}
	.st4{clip-path:url(#SVGID_10_);fill:#003D72;}
	.st5{clip-path:url(#SVGID_12_);fill:#003D72;}
	.st6{fill:#8DC63F;}
	.st7{fill:#003D72;}
</style>
<g>
	<g>
		<defs>
			<path id="SVGID_1_" d="M19.5,31.1c-6,5.2-9,11.7-9,19.5c0,6.2,2.1,11.2,6.2,14.9c3.7,3.7,11,6.9,22,9.6c1.9,0.6,4.6,1.2,8.4,1.9
				c8.7,1.8,13,4.6,13,8.4c0,2.5-1.2,4.4-3.7,5.9c-2.7,1.4-5.9,2.2-9.6,2.2c-5.2,0-9.3-1-12.4-3.1c-2.9-2.1-4.4-5.2-4.6-9.3H8.6v0.9
				c0,9.1,3,16,9,20.7c5.8,4.7,14.6,7.1,26.3,7.1c12.4,0,21.7-2.3,27.9-6.8c6.6-5,9.9-12,9.9-21.1c0-1.7-0.2-3.4-0.5-5
				c-1-4.8-3.8-8.9-7.8-11.6c-3.9-2.6-8.6-4.3-13.1-5.6c-5.6-1.7-11.4-2.7-17-4.2c-2.8-0.8-5.7-1.6-8.2-3.1
				c-1.3-0.8-3.2-2.4-3.2-4.2c0-2.5,1-4.3,2.8-5.6c2.1-1.2,5.2-1.8,9.3-1.8c4.3,0,7.8,0.9,10.2,2.8c0.8,0.8,1.6,1.6,2.5,2.5
				c2.1,3.5,5.1,5.3,9,5.3h13.3c-0.4-8.3-3.6-15-9.6-20.1c-6.4-4.8-15-7.1-25.7-7.1C33.7,24,25.7,26.3,19.5,31.1"/>
		</defs>
		<use xlink:href="#SVGID_1_"  style="overflow:visible;fill:#003D72;"/>
		<clipPath id="SVGID_2_">
			<use xlink:href="#SVGID_1_"  style="overflow:visible;"/>
		</clipPath>
		<rect x="8.6" y="24" class="st0" width="73.1" height="85.8"/>
	</g>
	<g>
		<defs>
			<path id="SVGID_3_" d="M86,59.6L86,59.6c0,0.2,0,0.3,0,0.5v48.2h21.6V58.8c0-7.9,6.4-14.4,14.4-14.4c7.9,0,14.4,6.4,14.4,14.4
				c0,0.2,0.1,0.4,0.1,0.6v38.4c0,3.1,1,5.6,2.9,7.6c2,2,4.5,2.9,7.6,2.9h10.8V60.1c0-0.3,0-0.6-0.1-0.9
				c-0.2-19.6-16.2-35.4-35.8-35.4C102,23.8,86,39.8,86,59.6"/>
		</defs>
		<use xlink:href="#SVGID_3_"  style="overflow:visible;fill:#003D72;"/>
		<clipPath id="SVGID_4_">
			<use xlink:href="#SVGID_3_"  style="overflow:visible;"/>
		</clipPath>
		<rect x="85.9" y="23.8" class="st1" width="71.7" height="84.6"/>
	</g>
	<g>
		<defs>
			<path id="SVGID_5_" d="M260,66.1c0-11.9,9.6-21.5,21.5-21.5c11.9,0,21.5,9.6,21.5,21.5c0,11.9-9.6,21.5-21.5,21.5
				C269.6,87.5,260,77.9,260,66.1 M277.2,24.3c-0.9,0.1-1.8,0.2-2.7,0.3c-0.5,0.1-1,0.1-1.4,0.2c-0.8,0.1-1.6,0.3-2.4,0.5
				c-0.6,0.2-1.1,0.3-1.7,0.4c-0.7,0.2-1.3,0.4-1.9,0.6c-0.7,0.2-1.3,0.5-2,0.7c-0.5,0.2-0.9,0.4-1.4,0.6c-0.8,0.4-1.6,0.8-2.4,1.2
				c-0.3,0.2-0.6,0.3-0.9,0.5c-1,0.5-1.9,1.1-2.9,1.7c-0.1,0.1-0.2,0.1-0.3,0.2C246,39,238.7,51.8,238.7,66.3c0,0.3,0,0.5,0,0.8
				c0,0.2,0.1,0.4,0.1,0.6c0,0.1,0,0.1,0,0.2c0,0.1,0,0.2,0,0.3v70.4h10.5c2.9,0,5.4-1,7.4-3.1c2.1-2.1,3.1-4.5,3.1-7.4v-25.3v-0.3
				c6.2,3.6,13.3,5.8,21,5.8c23.3,0,42.1-18.9,42.1-42.1c0-2.9-0.3-5.7-0.8-8.4c-4-19.2-20.9-33.6-41.2-33.6
				C279.6,24.2,278.4,24.2,277.2,24.3"/>
		</defs>
		<use xlink:href="#SVGID_5_"  style="overflow:visible;fill:#003D72;"/>
		<clipPath id="SVGID_6_">
			<use xlink:href="#SVGID_5_"  style="overflow:visible;"/>
		</clipPath>
		<rect x="238.7" y="24.2" class="st2" width="84.2" height="114.4"/>
	</g>
	<g>
		<defs>
			<path id="SVGID_7_" d="M184.5,91.4c-3.9-3-3.6-9-0.8-12.4c3.4-4.1,10.8-4.3,16-5.4c5.4-1.1,9.5-2.3,12.5-3.6v7
				c0,5.2-1.7,9.3-5.2,12.2c-3.4,3-8.1,4.5-14.1,4.5C189.2,93.6,186.4,92.8,184.5,91.4 M173.5,31.1c-5,4.1-7.9,9.4-8.7,15.8h20.7
				c1-2.3,2.7-3.8,5-4.6c5.7-2,21.4-3,21.4,6.2c0,7.1-11.7,7.8-16.5,8.5c-8.8,1.3-17.8,2.8-25.1,8.2c-5.1,3.7-7.6,9.9-7.6,18.6
				c0,9.3,2.8,16,8.4,20c5.6,4,12.1,6.1,19.5,6.1c3.7,0,8-0.3,12.8-0.8c3.7-0.4,7.3-1.3,10.7-2.7c0.1,0.1,0.2,0.3,0.3,0.4
				c2.1,2,4.5,3.1,7.4,3.1h10.5V75.7c0-0.1,0-0.2,0-0.3V47.2c0-7.4-3-13.2-9-17.3c-5.8-3.9-14.5-5.9-26-5.9
				C187,24,179,26.3,173.5,31.1"/>
		</defs>
		<use xlink:href="#SVGID_7_"  style="overflow:visible;fill:#003D72;"/>
		<clipPath id="SVGID_8_">
			<use xlink:href="#SVGID_7_"  style="overflow:visible;"/>
		</clipPath>
		<rect x="162.6" y="24" class="st3" width="69.7" height="85.8"/>
	</g>
	<g>
		<defs>
			<path id="SVGID_9_" d="M341.8,7.3c-3,0-5.5,1-7.6,3.1c-2.1,2.1-3.1,4.6-3.1,7.5l5.8,62.3h15.8l3.5-73H341.8z"/>
		</defs>
		<use xlink:href="#SVGID_9_"  style="overflow:visible;fill:#003D72;"/>
		<clipPath id="SVGID_10_">
			<use xlink:href="#SVGID_9_"  style="overflow:visible;"/>
		</clipPath>
		<rect x="331.2" y="7.3" class="st4" width="25.1" height="73"/>
	</g>
	<g>
		<defs>
			<path id="SVGID_11_" d="M335.2,88.8v20H347c5,0,7.5-2.5,7.5-7.5V88.8H335.2z"/>
		</defs>
		<use xlink:href="#SVGID_11_"  style="overflow:visible;fill:#003D72;"/>
		<clipPath id="SVGID_12_">
			<use xlink:href="#SVGID_11_"  style="overflow:visible;"/>
		</clipPath>
		<rect x="335.2" y="88.8" class="st5" width="19.4" height="20"/>
	</g>
</g>
<g>
	<path class="st6" d="M15.1,153.7v-20.4h-3.6V129h3.6v-3.9c0-4.1,2.4-6.2,7.2-6.2c1.3,0,2.7,0,4,0.1v5.2c-0.6-0.1-1.3-0.1-1.9-0.1
		c-2.2,0-3.3,1-3.3,3.1v1.7h5.3v4.3H21v20.4H15.1z"/>
</g>
<path class="st6" d="M35.2,118.9h5.9v6.1h-5.9V118.9z M35.2,129h5.9v24.8h-5.9V129z"/>
<path class="st6" d="M52.7,153.7V129h5.9v2.5c1.7-2,3.9-3,6.7-3c5.7,0,8.5,2.8,8.5,8.4v16.9h-5.9v-15.1c0-3-1.4-4.4-4.1-4.4
	c-1.5,0-2.7,0.5-3.7,1.5c-1,1.1-1.6,2.8-1.6,5v13.1H52.7z"/>
<path class="st6" d="M106,136.5v13.1c0,1.8,0.3,3.2,0.9,4.2h-6.2c-0.4-0.6-0.6-1.3-0.6-2.3c-2.3,1.9-5,2.8-8,2.8
	c-2.4,0-4.4-0.7-6-2.1c-1.6-1.4-2.4-3.3-2.4-5.6c0-4.2,2.5-6.8,7.5-7.7l2.5-0.5c1.6-0.3,3.8-0.8,6.4-1.5v-0.7c0-2.1-1.5-3.1-4.7-3.1
	c-1.7,0-2.9,0.3-3.5,0.8c-0.7,0.6-1,1.5-1,2.9l-5.9-0.2c0-2.7,1.1-4.8,3.2-6.2c1.9-1.2,4.3-1.9,7.2-1.9c3.2,0,5.6,0.5,7.3,1.4
	C104.8,131.1,106,133.3,106,136.5 M100.1,144.9v-3.5c-0.6,0.3-1.6,0.6-2.8,0.9l-3.2,0.7c-1.3,0.3-2.3,0.7-2.9,1
	c-0.8,0.5-1.2,1.3-1.2,2.4c0,0.9,0.4,1.7,1.1,2.2c0.7,0.6,1.6,0.9,2.7,0.9c1.6,0,3-0.4,4.2-1.1C99.3,147.5,100.1,146.3,100.1,144.9"
	/>
<path class="st6" d="M117.2,153.7V129h5.9v2.5c1.7-2,3.9-3,6.7-3c5.6,0,8.5,2.8,8.5,8.4v16.9h-5.9v-15.1c0-3-1.3-4.4-4.1-4.4
	c-1.5,0-2.7,0.5-3.7,1.5c-1,1.1-1.5,2.8-1.5,5v13.1H117.2z"/>
<path class="st6" d="M171.3,135.4l-5.2,2.4c-0.4-1.2-1.1-2.2-2-2.9c-0.9-0.7-2-1.1-3.2-1.1c-2,0-3.6,0.8-4.7,2.3
	c-1.1,1.4-1.6,3.1-1.6,5.2c0,2.1,0.5,3.8,1.5,5.2c1.1,1.5,2.6,2.3,4.5,2.3c2.7,0,4.7-1.6,6-4.8l5,2.7c-2.3,5.1-6,7.6-11.1,7.6
	c-3.7,0-6.6-1.2-8.9-3.7c-2.2-2.4-3.2-5.5-3.2-9.3c0-3.8,1.1-6.9,3.4-9.3c2.2-2.4,5.3-3.6,9.2-3.6
	C165.9,128.4,169.4,130.7,171.3,135.4"/>
<path class="st6" d="M203.6,142.8h-18.1c0,1.8,0.7,3.2,2,4.4c1.2,1.1,2.6,1.7,4.3,1.7c3.1,0,5.4-1.2,7.1-3.5l5,2.9
	c-2.6,4-6.6,6.1-12.1,6.1c-3.9,0-7-1.2-9.2-3.7c-2.2-2.4-3.3-5.5-3.3-9.3c0-3.8,1.1-6.9,3.4-9.3c2.3-2.4,5.3-3.6,9.2-3.6
	C199.7,128.4,203.6,133.2,203.6,142.8 M185.5,138.2h11.9c0-0.9-0.4-1.9-1.3-2.9c-1.1-1.3-2.5-2-4.3-2c-1.7,0-3,0.5-4.2,1.4
	C186.5,135.6,185.8,136.8,185.5,138.2"/>
<rect x="8.5" y="181.6" class="st7" width="347.9" height="3.4"/>
<g>
	<path class="st7" d="M10.7,212.1h14.4v3.8h-9.9v4.7h8.6v3.5h-8.6v8.4h-4.5V212.1z"/>
	<path class="st7" d="M28.3,212.1h4.5v20.4h-4.5V212.1z"/>
	<path class="st7" d="M37.3,212.1h4.5l8.5,13.7h0.1v-13.7h4.2v20.4H50l-8.5-13.7h-0.1v13.7h-4.2V212.1z"/>
	<path class="st7" d="M64.6,212.1h4.6l7.6,20.4h-4.7l-1.5-4.6H63l-1.6,4.6h-4.6L64.6,212.1z M64.2,224.6h5.3l-2.6-7.5h-0.1
		L64.2,224.6z"/>
	<path class="st7" d="M79.2,212.1h4.5l8.5,13.7h0.1v-13.7h4.2v20.4H92l-8.5-13.7h-0.1v13.7h-4.2V212.1z"/>
	<path class="st7" d="M114.6,218.9c-0.3-2-2.2-3.6-4.5-3.6c-4,0-5.6,3.4-5.6,7c0,3.4,1.5,6.8,5.6,6.8c2.7,0,4.3-1.9,4.6-4.6h4.4
		c-0.5,5.1-4,8.4-9,8.4c-6.3,0-10.1-4.7-10.1-10.6c0-6.1,3.7-10.8,10.1-10.8c4.5,0,8.3,2.6,8.8,7.4H114.6z"/>
	<path class="st7" d="M122.8,212.1h4.5v20.4h-4.5V212.1z"/>
	<path class="st7" d="M131.8,212.1h4.5l8.5,13.7h0.1v-13.7h4.2v20.4h-4.5l-8.5-13.7H136v13.7h-4.2V212.1z"/>
	<path class="st7" d="M168.3,230.2c-1.6,2-3.6,2.8-5.6,2.8c-6.3,0-10.1-4.7-10.1-10.6c0-6.1,3.7-10.8,10.1-10.8
		c4.2,0,8.1,2.6,8.6,7.2h-4.3c-0.5-2.3-2.2-3.4-4.3-3.4c-4,0-5.6,3.4-5.6,7c0,3.4,1.5,6.8,5.6,6.8c2.9,0,4.6-1.6,4.9-4.4h-4.5v-3.4
		h8.6v11.1h-2.9L168.3,230.2z"/>
	<path class="st7" d="M184.4,212.1h6.3l4.8,14.1h0.1l4.5-14.1h6.3v20.4h-4.2V218h-0.1l-5,14.5h-3.5l-5-14.3h-0.1v14.3h-4.2V212.1z"
		/>
	<path class="st7" d="M216.5,212.1h4.6l7.6,20.4h-4.7l-1.5-4.6h-7.6l-1.6,4.6h-4.6L216.5,212.1z M216.1,224.6h5.3l-2.6-7.5h-0.1
		L216.1,224.6z"/>
	<path class="st7" d="M231.1,212.1h8.8c5.3,0,9.3,3.3,9.3,10.1c0,5.9-3,10.3-9.3,10.3h-8.8V212.1z M235.6,228.7h4
		c2.6,0,5.1-1.6,5.1-6.1c0-4.1-1.4-6.8-5.9-6.8h-3.2V228.7z"/>
	<path class="st7" d="M252.9,212.1h15.3v3.8h-10.8v4.4h9.9v3.5h-9.9v5h11v3.8h-15.5V212.1z"/>
	<path class="st7" d="M280.5,212.1h15.3v3.8H285v4.4h9.9v3.5H285v5h11v3.8h-15.5V212.1z"/>
	<path class="st7" d="M305.2,212.1h4.6l7.6,20.4h-4.7l-1.5-4.6h-7.6l-1.6,4.6h-4.6L305.2,212.1z M304.8,224.6h5.3l-2.6-7.5h-0.1
		L304.8,224.6z"/>
	<path class="st7" d="M322.9,225.7c0,2.7,2.1,3.8,4.5,3.8c1.6,0,4-0.5,4-2.5c0-2.2-3.1-2.6-6.1-3.4c-3-0.8-6.1-2-6.1-5.8
		c0-4.2,4-6.2,7.6-6.2c4.3,0,8.2,1.9,8.2,6.6h-4.4c-0.1-2.5-1.9-3.1-4-3.1c-1.4,0-3.1,0.6-3.1,2.3c0,1.6,1,1.8,6.1,3.1
		c1.5,0.4,6.1,1.3,6.1,6c0,3.8-2.9,6.6-8.5,6.6c-4.5,0-8.8-2.2-8.7-7.3H322.9z"/>
	<path class="st7" d="M344.2,224.6l-7.5-12.5h5.1l4.8,8.1l4.8-8.1h5l-7.6,12.6v7.8h-4.5V224.6z"/>
</g>
</svg>
